<svg id="Group_464" data-name="Group 464" xmlns="http://www.w3.org/2000/svg" width="80" height="24.545" viewBox="0 0 80 24.545">
  <rect id="Rectangle_408" data-name="Rectangle 408" width="5.546" height="15.675" transform="translate(36.566 0.048)" fill="#ff7a4f"/>
  <path id="Path_429" data-name="Path 429" d="M234.705,19.28v5.265H183.656V24.53H179.2V0h5.546V19.28Z" transform="translate(-154.74)" fill="#ff7a4f"/>
  <path id="Path_430" data-name="Path 430" d="M319.111.2V15.891H312.38l-3.318-6.251v6.235H303.5V.2h6.828l3.238,6.107V.2Z" transform="translate(-257.875 -0.168)" fill="#ff7a4f"/>
  <rect id="Rectangle_409" data-name="Rectangle 409" width="5.546" height="15.675" transform="translate(80 9.531) rotate(90)" fill="#ff7a4f"/>
  <rect id="Rectangle_410" data-name="Rectangle 410" width="5.546" height="15.627" transform="translate(79.965 0.029) rotate(90)" fill="#ff7a4f"/>
  <path id="Path_431" data-name="Path 431" d="M5.594,9.056V24.7H.032L0,.2H6.828l5.337,9.342L17.423.2H24.17L24.2,24.7H18.657V9.177l-1.2,2.145-2.132,3.789H8.992L6.844,11.292Z" transform="translate(0 -0.168)" fill="#ff7a4f"/>
</svg>
